<mxfile host="app.diagrams.net" modified="2023-06-13T09:28:08.262Z" agent="5.0 (Windows NT 10.0; Win64; x64) AppleWebKit/537.36 (KHTML, like Gecko) Chrome/114.0.0.0 Safari/537.36 Edg/114.0.1823.43" etag="JZJ5AHHvo2_xwYM_d7V5" version="20.8.20" type="github">
  <diagram name="Page-1" id="kpTB8tELMbcla2kZQWty">
    <mxGraphModel dx="2229" dy="788" grid="1" gridSize="10" guides="1" tooltips="1" connect="1" arrows="1" fold="1" page="1" pageScale="1" pageWidth="850" pageHeight="1100" math="0" shadow="0">
      <root>
        <mxCell id="0" />
        <mxCell id="1" parent="0" />
        <mxCell id="pspyQs9ZKlBVKtvhPRJG-23" style="edgeStyle=orthogonalEdgeStyle;rounded=0;orthogonalLoop=1;jettySize=auto;html=1;exitX=0.75;exitY=1;exitDx=0;exitDy=0;strokeColor=default;strokeWidth=2;endArrow=none;endFill=0;" edge="1" parent="1" source="pspyQs9ZKlBVKtvhPRJG-1" target="pspyQs9ZKlBVKtvhPRJG-14">
          <mxGeometry relative="1" as="geometry" />
        </mxCell>
        <mxCell id="pspyQs9ZKlBVKtvhPRJG-24" style="edgeStyle=orthogonalEdgeStyle;rounded=0;orthogonalLoop=1;jettySize=auto;html=1;exitX=1;exitY=0.25;exitDx=0;exitDy=0;entryX=0;entryY=0.5;entryDx=0;entryDy=0;strokeColor=default;strokeWidth=2;endArrow=none;endFill=0;" edge="1" parent="1" source="pspyQs9ZKlBVKtvhPRJG-1" target="pspyQs9ZKlBVKtvhPRJG-10">
          <mxGeometry relative="1" as="geometry" />
        </mxCell>
        <mxCell id="pspyQs9ZKlBVKtvhPRJG-25" style="edgeStyle=orthogonalEdgeStyle;rounded=0;orthogonalLoop=1;jettySize=auto;html=1;exitX=0.75;exitY=0;exitDx=0;exitDy=0;entryX=0;entryY=1;entryDx=0;entryDy=0;strokeColor=default;strokeWidth=2;endArrow=none;endFill=0;" edge="1" parent="1" source="pspyQs9ZKlBVKtvhPRJG-1" target="pspyQs9ZKlBVKtvhPRJG-8">
          <mxGeometry relative="1" as="geometry" />
        </mxCell>
        <mxCell id="pspyQs9ZKlBVKtvhPRJG-26" style="edgeStyle=orthogonalEdgeStyle;rounded=0;orthogonalLoop=1;jettySize=auto;html=1;exitX=0.5;exitY=0;exitDx=0;exitDy=0;strokeColor=default;strokeWidth=2;endArrow=none;endFill=0;" edge="1" parent="1" source="pspyQs9ZKlBVKtvhPRJG-1" target="pspyQs9ZKlBVKtvhPRJG-7">
          <mxGeometry relative="1" as="geometry" />
        </mxCell>
        <mxCell id="pspyQs9ZKlBVKtvhPRJG-27" style="edgeStyle=orthogonalEdgeStyle;rounded=0;orthogonalLoop=1;jettySize=auto;html=1;exitX=0;exitY=0.5;exitDx=0;exitDy=0;entryX=0.5;entryY=1;entryDx=0;entryDy=0;strokeColor=default;strokeWidth=2;endArrow=none;endFill=0;" edge="1" parent="1" source="pspyQs9ZKlBVKtvhPRJG-1" target="pspyQs9ZKlBVKtvhPRJG-6">
          <mxGeometry relative="1" as="geometry" />
        </mxCell>
        <mxCell id="pspyQs9ZKlBVKtvhPRJG-75" style="edgeStyle=orthogonalEdgeStyle;rounded=0;orthogonalLoop=1;jettySize=auto;html=1;exitX=0;exitY=1;exitDx=0;exitDy=0;entryX=0.5;entryY=0;entryDx=0;entryDy=0;strokeColor=default;strokeWidth=2;endArrow=none;endFill=0;" edge="1" parent="1" source="pspyQs9ZKlBVKtvhPRJG-1" target="pspyQs9ZKlBVKtvhPRJG-71">
          <mxGeometry relative="1" as="geometry" />
        </mxCell>
        <mxCell id="pspyQs9ZKlBVKtvhPRJG-1" value="Customers" style="whiteSpace=wrap;html=1;align=center;strokeWidth=2;" vertex="1" parent="1">
          <mxGeometry x="460" y="140" width="100" height="40" as="geometry" />
        </mxCell>
        <mxCell id="pspyQs9ZKlBVKtvhPRJG-93" style="edgeStyle=orthogonalEdgeStyle;rounded=0;orthogonalLoop=1;jettySize=auto;html=1;exitX=0.75;exitY=1;exitDx=0;exitDy=0;strokeColor=default;strokeWidth=2;endArrow=none;endFill=0;" edge="1" parent="1" source="pspyQs9ZKlBVKtvhPRJG-2" target="pspyQs9ZKlBVKtvhPRJG-87">
          <mxGeometry relative="1" as="geometry" />
        </mxCell>
        <mxCell id="pspyQs9ZKlBVKtvhPRJG-2" value="Sellers" style="whiteSpace=wrap;html=1;align=center;strokeWidth=2;" vertex="1" parent="1">
          <mxGeometry x="-260" y="160" width="100" height="40" as="geometry" />
        </mxCell>
        <mxCell id="pspyQs9ZKlBVKtvhPRJG-86" style="edgeStyle=orthogonalEdgeStyle;rounded=0;orthogonalLoop=1;jettySize=auto;html=1;exitX=0.75;exitY=0;exitDx=0;exitDy=0;entryX=0.5;entryY=0;entryDx=0;entryDy=0;strokeColor=default;strokeWidth=2;endArrow=none;endFill=0;" edge="1" parent="1" source="pspyQs9ZKlBVKtvhPRJG-3" target="pspyQs9ZKlBVKtvhPRJG-74">
          <mxGeometry relative="1" as="geometry" />
        </mxCell>
        <mxCell id="pspyQs9ZKlBVKtvhPRJG-3" value="Products" style="whiteSpace=wrap;html=1;align=center;strokeWidth=2;" vertex="1" parent="1">
          <mxGeometry x="-190" y="380" width="100" height="40" as="geometry" />
        </mxCell>
        <mxCell id="pspyQs9ZKlBVKtvhPRJG-60" style="edgeStyle=orthogonalEdgeStyle;rounded=0;orthogonalLoop=1;jettySize=auto;html=1;exitX=0.5;exitY=1;exitDx=0;exitDy=0;entryX=0.5;entryY=0;entryDx=0;entryDy=0;strokeColor=default;strokeWidth=2;endArrow=none;endFill=0;" edge="1" parent="1" source="pspyQs9ZKlBVKtvhPRJG-4" target="pspyQs9ZKlBVKtvhPRJG-59">
          <mxGeometry relative="1" as="geometry" />
        </mxCell>
        <mxCell id="pspyQs9ZKlBVKtvhPRJG-80" style="edgeStyle=orthogonalEdgeStyle;rounded=0;orthogonalLoop=1;jettySize=auto;html=1;exitX=0;exitY=1;exitDx=0;exitDy=0;entryX=1;entryY=0.5;entryDx=0;entryDy=0;strokeColor=default;strokeWidth=2;endArrow=none;endFill=0;" edge="1" parent="1" source="pspyQs9ZKlBVKtvhPRJG-4" target="pspyQs9ZKlBVKtvhPRJG-72">
          <mxGeometry relative="1" as="geometry" />
        </mxCell>
        <mxCell id="pspyQs9ZKlBVKtvhPRJG-4" value="Orders" style="whiteSpace=wrap;html=1;align=center;strokeWidth=2;" vertex="1" parent="1">
          <mxGeometry x="400" y="510" width="100" height="40" as="geometry" />
        </mxCell>
        <mxCell id="pspyQs9ZKlBVKtvhPRJG-5" value="Payments" style="whiteSpace=wrap;html=1;align=center;strokeWidth=2;" vertex="1" parent="1">
          <mxGeometry x="115" y="640" width="100" height="40" as="geometry" />
        </mxCell>
        <mxCell id="pspyQs9ZKlBVKtvhPRJG-6" value="customer_id" style="ellipse;whiteSpace=wrap;html=1;align=center;strokeWidth=2;" vertex="1" parent="1">
          <mxGeometry x="340" y="40" width="100" height="40" as="geometry" />
        </mxCell>
        <mxCell id="pspyQs9ZKlBVKtvhPRJG-7" value="name" style="ellipse;whiteSpace=wrap;html=1;align=center;strokeWidth=2;" vertex="1" parent="1">
          <mxGeometry x="470" y="40" width="100" height="40" as="geometry" />
        </mxCell>
        <mxCell id="pspyQs9ZKlBVKtvhPRJG-8" value="email" style="ellipse;whiteSpace=wrap;html=1;align=center;strokeWidth=2;" vertex="1" parent="1">
          <mxGeometry x="600" y="60" width="100" height="40" as="geometry" />
        </mxCell>
        <mxCell id="pspyQs9ZKlBVKtvhPRJG-9" value="zipcode" style="ellipse;whiteSpace=wrap;html=1;align=center;strokeWidth=2;" vertex="1" parent="1">
          <mxGeometry x="670" y="210" width="100" height="40" as="geometry" />
        </mxCell>
        <mxCell id="pspyQs9ZKlBVKtvhPRJG-10" value="phone_no" style="ellipse;shape=doubleEllipse;margin=3;whiteSpace=wrap;html=1;align=center;strokeWidth=2;" vertex="1" parent="1">
          <mxGeometry x="660" y="120" width="100" height="40" as="geometry" />
        </mxCell>
        <mxCell id="pspyQs9ZKlBVKtvhPRJG-12" value="state" style="ellipse;whiteSpace=wrap;html=1;align=center;strokeWidth=2;" vertex="1" parent="1">
          <mxGeometry x="600" y="280" width="100" height="40" as="geometry" />
        </mxCell>
        <mxCell id="pspyQs9ZKlBVKtvhPRJG-13" value="city" style="ellipse;whiteSpace=wrap;html=1;align=center;strokeWidth=2;" vertex="1" parent="1">
          <mxGeometry x="490" y="280" width="100" height="40" as="geometry" />
        </mxCell>
        <mxCell id="pspyQs9ZKlBVKtvhPRJG-17" style="edgeStyle=orthogonalEdgeStyle;rounded=0;orthogonalLoop=1;jettySize=auto;html=1;exitX=0;exitY=1;exitDx=0;exitDy=0;entryX=0.7;entryY=0;entryDx=0;entryDy=0;entryPerimeter=0;strokeColor=none;" edge="1" parent="1" source="pspyQs9ZKlBVKtvhPRJG-14" target="pspyQs9ZKlBVKtvhPRJG-13">
          <mxGeometry relative="1" as="geometry" />
        </mxCell>
        <mxCell id="pspyQs9ZKlBVKtvhPRJG-18" style="edgeStyle=orthogonalEdgeStyle;rounded=0;orthogonalLoop=1;jettySize=auto;html=1;exitX=0;exitY=1;exitDx=0;exitDy=0;entryX=0.6;entryY=0.05;entryDx=0;entryDy=0;entryPerimeter=0;strokeColor=default;strokeWidth=2;endArrow=none;endFill=0;" edge="1" parent="1" source="pspyQs9ZKlBVKtvhPRJG-14" target="pspyQs9ZKlBVKtvhPRJG-13">
          <mxGeometry relative="1" as="geometry" />
        </mxCell>
        <mxCell id="pspyQs9ZKlBVKtvhPRJG-20" style="edgeStyle=orthogonalEdgeStyle;rounded=0;orthogonalLoop=1;jettySize=auto;html=1;exitX=1;exitY=0.5;exitDx=0;exitDy=0;entryX=0;entryY=0.5;entryDx=0;entryDy=0;strokeColor=default;strokeWidth=2;endArrow=none;endFill=0;" edge="1" parent="1" source="pspyQs9ZKlBVKtvhPRJG-14" target="pspyQs9ZKlBVKtvhPRJG-9">
          <mxGeometry relative="1" as="geometry" />
        </mxCell>
        <mxCell id="pspyQs9ZKlBVKtvhPRJG-22" style="edgeStyle=orthogonalEdgeStyle;rounded=0;orthogonalLoop=1;jettySize=auto;html=1;exitX=1;exitY=1;exitDx=0;exitDy=0;entryX=0;entryY=0;entryDx=0;entryDy=0;strokeColor=default;strokeWidth=2;endArrow=none;endFill=0;" edge="1" parent="1" source="pspyQs9ZKlBVKtvhPRJG-14" target="pspyQs9ZKlBVKtvhPRJG-12">
          <mxGeometry relative="1" as="geometry" />
        </mxCell>
        <mxCell id="pspyQs9ZKlBVKtvhPRJG-14" value="address" style="ellipse;whiteSpace=wrap;html=1;align=center;strokeWidth=2;" vertex="1" parent="1">
          <mxGeometry x="530" y="210" width="100" height="40" as="geometry" />
        </mxCell>
        <mxCell id="pspyQs9ZKlBVKtvhPRJG-33" style="edgeStyle=orthogonalEdgeStyle;rounded=0;orthogonalLoop=1;jettySize=auto;html=1;exitX=0.5;exitY=1;exitDx=0;exitDy=0;entryX=0.25;entryY=0;entryDx=0;entryDy=0;strokeColor=default;strokeWidth=2;endArrow=none;endFill=0;" edge="1" parent="1" source="pspyQs9ZKlBVKtvhPRJG-28" target="pspyQs9ZKlBVKtvhPRJG-2">
          <mxGeometry relative="1" as="geometry" />
        </mxCell>
        <mxCell id="pspyQs9ZKlBVKtvhPRJG-28" value="seller_id" style="ellipse;whiteSpace=wrap;html=1;align=center;strokeWidth=2;" vertex="1" parent="1">
          <mxGeometry x="-340" y="40" width="100" height="40" as="geometry" />
        </mxCell>
        <mxCell id="pspyQs9ZKlBVKtvhPRJG-35" style="edgeStyle=orthogonalEdgeStyle;rounded=0;orthogonalLoop=1;jettySize=auto;html=1;exitX=0;exitY=1;exitDx=0;exitDy=0;entryX=1;entryY=0;entryDx=0;entryDy=0;strokeColor=default;strokeWidth=2;endArrow=none;endFill=0;" edge="1" parent="1" source="pspyQs9ZKlBVKtvhPRJG-29" target="pspyQs9ZKlBVKtvhPRJG-2">
          <mxGeometry relative="1" as="geometry" />
        </mxCell>
        <mxCell id="pspyQs9ZKlBVKtvhPRJG-29" value="email" style="ellipse;whiteSpace=wrap;html=1;align=center;strokeWidth=2;" vertex="1" parent="1">
          <mxGeometry x="-130" y="90" width="100" height="40" as="geometry" />
        </mxCell>
        <mxCell id="pspyQs9ZKlBVKtvhPRJG-34" style="edgeStyle=orthogonalEdgeStyle;rounded=0;orthogonalLoop=1;jettySize=auto;html=1;exitX=0.5;exitY=1;exitDx=0;exitDy=0;strokeColor=default;strokeWidth=2;endArrow=none;endFill=0;" edge="1" parent="1" source="pspyQs9ZKlBVKtvhPRJG-30" target="pspyQs9ZKlBVKtvhPRJG-2">
          <mxGeometry relative="1" as="geometry" />
        </mxCell>
        <mxCell id="pspyQs9ZKlBVKtvhPRJG-30" value="name" style="ellipse;whiteSpace=wrap;html=1;align=center;strokeWidth=2;" vertex="1" parent="1">
          <mxGeometry x="-210" y="40" width="100" height="40" as="geometry" />
        </mxCell>
        <mxCell id="pspyQs9ZKlBVKtvhPRJG-36" style="edgeStyle=orthogonalEdgeStyle;rounded=0;orthogonalLoop=1;jettySize=auto;html=1;exitX=0;exitY=0.5;exitDx=0;exitDy=0;strokeColor=default;strokeWidth=2;endArrow=none;endFill=0;" edge="1" parent="1" target="pspyQs9ZKlBVKtvhPRJG-2">
          <mxGeometry relative="1" as="geometry">
            <mxPoint x="-100" y="180" as="sourcePoint" />
          </mxGeometry>
        </mxCell>
        <mxCell id="pspyQs9ZKlBVKtvhPRJG-32" value="phone_no" style="ellipse;shape=doubleEllipse;margin=3;whiteSpace=wrap;html=1;align=center;strokeWidth=2;" vertex="1" parent="1">
          <mxGeometry x="-100" y="160" width="100" height="40" as="geometry" />
        </mxCell>
        <mxCell id="pspyQs9ZKlBVKtvhPRJG-43" style="edgeStyle=orthogonalEdgeStyle;rounded=0;orthogonalLoop=1;jettySize=auto;html=1;exitX=1;exitY=0.5;exitDx=0;exitDy=0;entryX=0.5;entryY=0;entryDx=0;entryDy=0;strokeColor=default;strokeWidth=2;endArrow=none;endFill=0;" edge="1" parent="1" source="pspyQs9ZKlBVKtvhPRJG-37" target="pspyQs9ZKlBVKtvhPRJG-3">
          <mxGeometry relative="1" as="geometry" />
        </mxCell>
        <mxCell id="pspyQs9ZKlBVKtvhPRJG-37" value="product_id" style="ellipse;whiteSpace=wrap;html=1;align=center;strokeWidth=2;" vertex="1" parent="1">
          <mxGeometry x="-290" y="290" width="100" height="40" as="geometry" />
        </mxCell>
        <mxCell id="pspyQs9ZKlBVKtvhPRJG-48" style="edgeStyle=orthogonalEdgeStyle;rounded=0;orthogonalLoop=1;jettySize=auto;html=1;exitX=0.5;exitY=0;exitDx=0;exitDy=0;entryX=1;entryY=0.25;entryDx=0;entryDy=0;strokeColor=default;strokeWidth=2;endArrow=none;endFill=0;" edge="1" parent="1" source="pspyQs9ZKlBVKtvhPRJG-38" target="pspyQs9ZKlBVKtvhPRJG-3">
          <mxGeometry relative="1" as="geometry" />
        </mxCell>
        <mxCell id="pspyQs9ZKlBVKtvhPRJG-38" value="size" style="ellipse;whiteSpace=wrap;html=1;align=center;strokeWidth=2;" vertex="1" parent="1">
          <mxGeometry x="-50" y="410" width="100" height="40" as="geometry" />
        </mxCell>
        <mxCell id="pspyQs9ZKlBVKtvhPRJG-44" style="edgeStyle=orthogonalEdgeStyle;rounded=0;orthogonalLoop=1;jettySize=auto;html=1;exitX=1;exitY=0.5;exitDx=0;exitDy=0;entryX=0;entryY=0;entryDx=0;entryDy=0;strokeColor=default;strokeWidth=2;endArrow=none;endFill=0;" edge="1" parent="1" source="pspyQs9ZKlBVKtvhPRJG-39" target="pspyQs9ZKlBVKtvhPRJG-3">
          <mxGeometry relative="1" as="geometry" />
        </mxCell>
        <mxCell id="pspyQs9ZKlBVKtvhPRJG-39" value="name" style="ellipse;whiteSpace=wrap;html=1;align=center;strokeWidth=2;" vertex="1" parent="1">
          <mxGeometry x="-300" y="360" width="100" height="40" as="geometry" />
        </mxCell>
        <mxCell id="pspyQs9ZKlBVKtvhPRJG-45" style="edgeStyle=orthogonalEdgeStyle;rounded=0;orthogonalLoop=1;jettySize=auto;html=1;exitX=1;exitY=0;exitDx=0;exitDy=0;entryX=0;entryY=1;entryDx=0;entryDy=0;strokeColor=default;strokeWidth=2;endArrow=none;endFill=0;" edge="1" parent="1" source="pspyQs9ZKlBVKtvhPRJG-40" target="pspyQs9ZKlBVKtvhPRJG-3">
          <mxGeometry relative="1" as="geometry" />
        </mxCell>
        <mxCell id="pspyQs9ZKlBVKtvhPRJG-40" value="description" style="ellipse;whiteSpace=wrap;html=1;align=center;strokeWidth=2;" vertex="1" parent="1">
          <mxGeometry x="-310" y="430" width="100" height="40" as="geometry" />
        </mxCell>
        <mxCell id="pspyQs9ZKlBVKtvhPRJG-46" style="edgeStyle=orthogonalEdgeStyle;rounded=0;orthogonalLoop=1;jettySize=auto;html=1;exitX=0.5;exitY=0;exitDx=0;exitDy=0;entryX=0.25;entryY=1;entryDx=0;entryDy=0;strokeColor=default;strokeWidth=2;endArrow=none;endFill=0;" edge="1" parent="1" source="pspyQs9ZKlBVKtvhPRJG-41" target="pspyQs9ZKlBVKtvhPRJG-3">
          <mxGeometry relative="1" as="geometry" />
        </mxCell>
        <mxCell id="pspyQs9ZKlBVKtvhPRJG-41" value="qty" style="ellipse;whiteSpace=wrap;html=1;align=center;strokeWidth=2;" vertex="1" parent="1">
          <mxGeometry x="-230" y="480" width="100" height="40" as="geometry" />
        </mxCell>
        <mxCell id="pspyQs9ZKlBVKtvhPRJG-47" style="edgeStyle=orthogonalEdgeStyle;rounded=0;orthogonalLoop=1;jettySize=auto;html=1;exitX=0;exitY=0;exitDx=0;exitDy=0;entryX=0.75;entryY=1;entryDx=0;entryDy=0;strokeColor=default;strokeWidth=2;endArrow=none;endFill=0;" edge="1" parent="1" source="pspyQs9ZKlBVKtvhPRJG-42" target="pspyQs9ZKlBVKtvhPRJG-3">
          <mxGeometry relative="1" as="geometry" />
        </mxCell>
        <mxCell id="pspyQs9ZKlBVKtvhPRJG-42" value="price" style="ellipse;whiteSpace=wrap;html=1;align=center;strokeWidth=2;" vertex="1" parent="1">
          <mxGeometry x="-120" y="480" width="100" height="40" as="geometry" />
        </mxCell>
        <mxCell id="pspyQs9ZKlBVKtvhPRJG-55" style="edgeStyle=orthogonalEdgeStyle;rounded=0;orthogonalLoop=1;jettySize=auto;html=1;exitX=0.5;exitY=1;exitDx=0;exitDy=0;entryX=0.5;entryY=0;entryDx=0;entryDy=0;strokeColor=default;strokeWidth=2;endArrow=none;endFill=0;" edge="1" parent="1" source="pspyQs9ZKlBVKtvhPRJG-49" target="pspyQs9ZKlBVKtvhPRJG-4">
          <mxGeometry relative="1" as="geometry" />
        </mxCell>
        <mxCell id="pspyQs9ZKlBVKtvhPRJG-49" value="order_id" style="ellipse;whiteSpace=wrap;html=1;align=center;strokeWidth=2;" vertex="1" parent="1">
          <mxGeometry x="390" y="420" width="100" height="40" as="geometry" />
        </mxCell>
        <mxCell id="pspyQs9ZKlBVKtvhPRJG-56" style="edgeStyle=orthogonalEdgeStyle;rounded=0;orthogonalLoop=1;jettySize=auto;html=1;exitX=0;exitY=1;exitDx=0;exitDy=0;entryX=0.75;entryY=0;entryDx=0;entryDy=0;strokeColor=default;strokeWidth=2;endArrow=none;endFill=0;" edge="1" parent="1" source="pspyQs9ZKlBVKtvhPRJG-50" target="pspyQs9ZKlBVKtvhPRJG-4">
          <mxGeometry relative="1" as="geometry" />
        </mxCell>
        <mxCell id="pspyQs9ZKlBVKtvhPRJG-50" value="customer_id" style="ellipse;whiteSpace=wrap;html=1;align=center;strokeWidth=2;" vertex="1" parent="1">
          <mxGeometry x="510" y="430" width="100" height="40" as="geometry" />
        </mxCell>
        <mxCell id="pspyQs9ZKlBVKtvhPRJG-57" style="edgeStyle=orthogonalEdgeStyle;rounded=0;orthogonalLoop=1;jettySize=auto;html=1;exitX=0;exitY=0.5;exitDx=0;exitDy=0;entryX=1;entryY=0.5;entryDx=0;entryDy=0;strokeColor=default;strokeWidth=2;endArrow=none;endFill=0;" edge="1" parent="1" source="pspyQs9ZKlBVKtvhPRJG-52" target="pspyQs9ZKlBVKtvhPRJG-4">
          <mxGeometry relative="1" as="geometry" />
        </mxCell>
        <mxCell id="pspyQs9ZKlBVKtvhPRJG-52" value="product_id" style="ellipse;whiteSpace=wrap;html=1;align=center;strokeWidth=2;" vertex="1" parent="1">
          <mxGeometry x="530" y="490" width="100" height="40" as="geometry" />
        </mxCell>
        <mxCell id="pspyQs9ZKlBVKtvhPRJG-58" style="edgeStyle=orthogonalEdgeStyle;rounded=0;orthogonalLoop=1;jettySize=auto;html=1;exitX=0;exitY=0;exitDx=0;exitDy=0;entryX=1;entryY=1;entryDx=0;entryDy=0;strokeColor=default;strokeWidth=2;endArrow=none;endFill=0;" edge="1" parent="1" source="pspyQs9ZKlBVKtvhPRJG-53" target="pspyQs9ZKlBVKtvhPRJG-4">
          <mxGeometry relative="1" as="geometry" />
        </mxCell>
        <mxCell id="pspyQs9ZKlBVKtvhPRJG-53" value="payment_id" style="ellipse;whiteSpace=wrap;html=1;align=center;strokeWidth=2;" vertex="1" parent="1">
          <mxGeometry x="520" y="560" width="100" height="40" as="geometry" />
        </mxCell>
        <mxCell id="pspyQs9ZKlBVKtvhPRJG-59" value="order_date" style="ellipse;whiteSpace=wrap;html=1;align=center;strokeWidth=2;" vertex="1" parent="1">
          <mxGeometry x="400" y="590" width="100" height="40" as="geometry" />
        </mxCell>
        <mxCell id="pspyQs9ZKlBVKtvhPRJG-65" style="edgeStyle=orthogonalEdgeStyle;rounded=0;orthogonalLoop=1;jettySize=auto;html=1;exitX=1;exitY=0.5;exitDx=0;exitDy=0;entryX=0;entryY=0.5;entryDx=0;entryDy=0;strokeColor=default;strokeWidth=2;endArrow=none;endFill=0;" edge="1" parent="1" source="pspyQs9ZKlBVKtvhPRJG-61" target="pspyQs9ZKlBVKtvhPRJG-5">
          <mxGeometry relative="1" as="geometry" />
        </mxCell>
        <mxCell id="pspyQs9ZKlBVKtvhPRJG-61" value="payment_id" style="ellipse;whiteSpace=wrap;html=1;align=center;strokeWidth=2;" vertex="1" parent="1">
          <mxGeometry x="-40" y="640" width="100" height="40" as="geometry" />
        </mxCell>
        <mxCell id="pspyQs9ZKlBVKtvhPRJG-70" style="edgeStyle=orthogonalEdgeStyle;rounded=0;orthogonalLoop=1;jettySize=auto;html=1;exitX=0;exitY=0.5;exitDx=0;exitDy=0;entryX=1;entryY=0.75;entryDx=0;entryDy=0;strokeColor=default;strokeWidth=2;endArrow=none;endFill=0;" edge="1" parent="1" source="pspyQs9ZKlBVKtvhPRJG-62" target="pspyQs9ZKlBVKtvhPRJG-5">
          <mxGeometry relative="1" as="geometry" />
        </mxCell>
        <mxCell id="pspyQs9ZKlBVKtvhPRJG-62" value="date" style="ellipse;whiteSpace=wrap;html=1;align=center;strokeWidth=2;" vertex="1" parent="1">
          <mxGeometry x="270" y="650" width="100" height="40" as="geometry" />
        </mxCell>
        <mxCell id="pspyQs9ZKlBVKtvhPRJG-69" style="edgeStyle=orthogonalEdgeStyle;rounded=0;orthogonalLoop=1;jettySize=auto;html=1;exitX=0;exitY=0;exitDx=0;exitDy=0;strokeColor=default;strokeWidth=2;endArrow=none;endFill=0;" edge="1" parent="1" source="pspyQs9ZKlBVKtvhPRJG-63" target="pspyQs9ZKlBVKtvhPRJG-5">
          <mxGeometry relative="1" as="geometry" />
        </mxCell>
        <mxCell id="pspyQs9ZKlBVKtvhPRJG-63" value="type" style="ellipse;whiteSpace=wrap;html=1;align=center;strokeWidth=2;" vertex="1" parent="1">
          <mxGeometry x="190" y="720" width="100" height="40" as="geometry" />
        </mxCell>
        <mxCell id="pspyQs9ZKlBVKtvhPRJG-66" style="edgeStyle=orthogonalEdgeStyle;rounded=0;orthogonalLoop=1;jettySize=auto;html=1;exitX=0.5;exitY=0;exitDx=0;exitDy=0;entryX=0.25;entryY=1;entryDx=0;entryDy=0;strokeColor=default;strokeWidth=2;endArrow=none;endFill=0;" edge="1" parent="1" source="pspyQs9ZKlBVKtvhPRJG-64" target="pspyQs9ZKlBVKtvhPRJG-5">
          <mxGeometry relative="1" as="geometry" />
        </mxCell>
        <mxCell id="pspyQs9ZKlBVKtvhPRJG-64" value="source" style="ellipse;whiteSpace=wrap;html=1;align=center;strokeWidth=2;" vertex="1" parent="1">
          <mxGeometry x="40" y="720" width="100" height="40" as="geometry" />
        </mxCell>
        <mxCell id="pspyQs9ZKlBVKtvhPRJG-76" style="edgeStyle=orthogonalEdgeStyle;rounded=0;orthogonalLoop=1;jettySize=auto;html=1;exitX=0.5;exitY=1;exitDx=0;exitDy=0;entryX=0;entryY=0.25;entryDx=0;entryDy=0;strokeColor=default;strokeWidth=2;endArrow=none;endFill=0;" edge="1" parent="1" source="pspyQs9ZKlBVKtvhPRJG-71" target="pspyQs9ZKlBVKtvhPRJG-4">
          <mxGeometry relative="1" as="geometry" />
        </mxCell>
        <mxCell id="pspyQs9ZKlBVKtvhPRJG-71" value="Orders" style="shape=rhombus;perimeter=rhombusPerimeter;whiteSpace=wrap;html=1;align=center;strokeWidth=2;" vertex="1" parent="1">
          <mxGeometry x="270" y="290" width="120" height="60" as="geometry" />
        </mxCell>
        <mxCell id="pspyQs9ZKlBVKtvhPRJG-81" style="edgeStyle=orthogonalEdgeStyle;rounded=0;orthogonalLoop=1;jettySize=auto;html=1;exitX=0;exitY=0.5;exitDx=0;exitDy=0;entryX=0.75;entryY=0;entryDx=0;entryDy=0;strokeColor=default;strokeWidth=2;endArrow=none;endFill=0;" edge="1" parent="1" source="pspyQs9ZKlBVKtvhPRJG-72" target="pspyQs9ZKlBVKtvhPRJG-5">
          <mxGeometry relative="1" as="geometry" />
        </mxCell>
        <mxCell id="pspyQs9ZKlBVKtvhPRJG-72" value="Payment" style="shape=rhombus;perimeter=rhombusPerimeter;whiteSpace=wrap;html=1;align=center;strokeWidth=2;" vertex="1" parent="1">
          <mxGeometry x="220" y="550" width="120" height="60" as="geometry" />
        </mxCell>
        <mxCell id="pspyQs9ZKlBVKtvhPRJG-73" value="Relationship" style="shape=rhombus;perimeter=rhombusPerimeter;whiteSpace=wrap;html=1;align=center;strokeWidth=2;" vertex="1" parent="1">
          <mxGeometry x="95" y="120" width="120" height="60" as="geometry" />
        </mxCell>
        <mxCell id="pspyQs9ZKlBVKtvhPRJG-84" style="edgeStyle=orthogonalEdgeStyle;rounded=0;orthogonalLoop=1;jettySize=auto;html=1;exitX=1;exitY=0.5;exitDx=0;exitDy=0;entryX=0;entryY=0.75;entryDx=0;entryDy=0;strokeColor=default;strokeWidth=2;endArrow=none;endFill=0;" edge="1" parent="1" source="pspyQs9ZKlBVKtvhPRJG-74" target="pspyQs9ZKlBVKtvhPRJG-4">
          <mxGeometry relative="1" as="geometry" />
        </mxCell>
        <mxCell id="pspyQs9ZKlBVKtvhPRJG-74" value="Contains" style="shape=rhombus;perimeter=rhombusPerimeter;whiteSpace=wrap;html=1;align=center;strokeWidth=2;" vertex="1" parent="1">
          <mxGeometry x="115" y="400" width="120" height="60" as="geometry" />
        </mxCell>
        <mxCell id="pspyQs9ZKlBVKtvhPRJG-78" value="&lt;b&gt;M&lt;/b&gt;" style="text;html=1;align=center;verticalAlign=middle;resizable=0;points=[];autosize=1;strokeColor=none;fillColor=none;" vertex="1" parent="1">
          <mxGeometry x="455" y="190" width="30" height="30" as="geometry" />
        </mxCell>
        <mxCell id="pspyQs9ZKlBVKtvhPRJG-79" value="&lt;b&gt;M&lt;/b&gt;" style="text;html=1;align=center;verticalAlign=middle;resizable=0;points=[];autosize=1;strokeColor=none;fillColor=none;" vertex="1" parent="1">
          <mxGeometry x="360" y="495" width="30" height="30" as="geometry" />
        </mxCell>
        <mxCell id="pspyQs9ZKlBVKtvhPRJG-82" value="&lt;b&gt;1&lt;/b&gt;" style="text;html=1;align=center;verticalAlign=middle;resizable=0;points=[];autosize=1;strokeColor=none;fillColor=none;" vertex="1" parent="1">
          <mxGeometry x="375" y="555" width="30" height="30" as="geometry" />
        </mxCell>
        <mxCell id="pspyQs9ZKlBVKtvhPRJG-83" value="&lt;b&gt;1&lt;/b&gt;" style="text;html=1;align=center;verticalAlign=middle;resizable=0;points=[];autosize=1;strokeColor=none;fillColor=none;" vertex="1" parent="1">
          <mxGeometry x="185" y="610" width="30" height="30" as="geometry" />
        </mxCell>
        <mxCell id="pspyQs9ZKlBVKtvhPRJG-94" style="edgeStyle=orthogonalEdgeStyle;rounded=0;orthogonalLoop=1;jettySize=auto;html=1;exitX=0.5;exitY=1;exitDx=0;exitDy=0;entryX=0.64;entryY=0.025;entryDx=0;entryDy=0;entryPerimeter=0;strokeColor=default;strokeWidth=2;endArrow=none;endFill=0;" edge="1" parent="1" source="pspyQs9ZKlBVKtvhPRJG-87" target="pspyQs9ZKlBVKtvhPRJG-3">
          <mxGeometry relative="1" as="geometry" />
        </mxCell>
        <mxCell id="pspyQs9ZKlBVKtvhPRJG-87" value="Sells" style="shape=rhombus;perimeter=rhombusPerimeter;whiteSpace=wrap;html=1;align=center;strokeWidth=2;" vertex="1" parent="1">
          <mxGeometry x="-100" y="240" width="120" height="60" as="geometry" />
        </mxCell>
        <mxCell id="pspyQs9ZKlBVKtvhPRJG-88" value="&lt;b&gt;1&lt;/b&gt;" style="text;html=1;align=center;verticalAlign=middle;resizable=0;points=[];autosize=1;strokeColor=none;fillColor=none;" vertex="1" parent="1">
          <mxGeometry x="360" y="535" width="30" height="30" as="geometry" />
        </mxCell>
        <mxCell id="pspyQs9ZKlBVKtvhPRJG-89" value="&lt;b&gt;M&lt;/b&gt;" style="text;html=1;align=center;verticalAlign=middle;resizable=0;points=[];autosize=1;strokeColor=none;fillColor=none;" vertex="1" parent="1">
          <mxGeometry x="-100" y="340" width="30" height="30" as="geometry" />
        </mxCell>
        <mxCell id="pspyQs9ZKlBVKtvhPRJG-95" value="&lt;b&gt;M&lt;/b&gt;" style="text;html=1;align=center;verticalAlign=middle;resizable=0;points=[];autosize=1;strokeColor=none;fillColor=none;" vertex="1" parent="1">
          <mxGeometry x="-50" y="310" width="30" height="30" as="geometry" />
        </mxCell>
        <mxCell id="pspyQs9ZKlBVKtvhPRJG-97" value="&lt;b&gt;1&lt;/b&gt;" style="text;html=1;align=center;verticalAlign=middle;resizable=0;points=[];autosize=1;strokeColor=none;fillColor=none;" vertex="1" parent="1">
          <mxGeometry x="-190" y="220" width="30" height="30" as="geometry" />
        </mxCell>
      </root>
    </mxGraphModel>
  </diagram>
</mxfile>
